<svg viewBox="0 0 500 500" xmlns="http://www.w3.org/2000/svg">
  <path d="M418.6,231.1c2-75.1-41-143.2-113.6-179.3c-66.7-33.1-150-32-215.1,3.2C24.1,89.5-12.7,162.8,3.9,235.6
      c17.5,76.5,84.1,130.6,162.6,134.1c110.1,4.9,251.6-43.1,252.1-138.6zm-119.5-3.3c-1.7,35.6-43.2,74.5-110.1,74.1
      c-44-0.3-81.7-27.1-91.8-70.1c-15-64,44.9-106.3,103.5-106.3c48.6,0,101.5,33.5,98.4,102.3z" fill="#000000"/>
  <path d="M12.9,285.8C20.6,377,93.5,455.5,183.4,472c67,12.3,138.6-4.9,193.3-46.3c35.6-26.9,64.2-63,78.2-105.7
      c-31,23.6-70.3,37.2-111,37.2c-56.1,0-109.1-24.9-145-66.2C172.5,322.2,96.5,285.3,12.9,285.8z" fill="#14a34b"/>
</svg>
